<svg width="16" height="16" viewBox="0 0 16 16" fill="none" xmlns="http://www.w3.org/2000/svg">
<rect width="16" height="16" rx="8" fill="white"/>
<path d="M1.60001 8C1.60001 6.30261 2.27429 4.67475 3.47452 3.47452C4.67476 2.27428 6.30262 1.6 8.00001 1.6C9.69739 1.6 11.3253 2.27428 12.5255 3.47452C13.7257 4.67475 14.4 6.30261 14.4 8C14.4 9.69739 13.7257 11.3253 12.5255 12.5255C11.3253 13.7257 9.69739 14.4 8.00001 14.4C6.30262 14.4 4.67476 13.7257 3.47452 12.5255C2.27429 11.3253 1.60001 9.69739 1.60001 8ZM8.00001 8.8C7.78783 8.8 7.58435 8.71571 7.43432 8.56569C7.28429 8.41566 7.20001 8.21217 7.20001 8C7.20001 7.78783 7.28429 7.58434 7.43432 7.43432C7.58435 7.28429 7.78783 7.2 8.00001 7.2C8.21218 7.2 8.41566 7.28429 8.56569 7.43432C8.71572 7.58434 8.80001 7.78783 8.80001 8C8.80001 8.21217 8.71572 8.41566 8.56569 8.56569C8.41566 8.71571 8.21218 8.8 8.00001 8.8ZM5.60001 8C5.60001 8.63652 5.85286 9.24697 6.30295 9.69706C6.75304 10.1471 7.36349 10.4 8.00001 10.4C8.63653 10.4 9.24698 10.1471 9.69706 9.69706C10.1472 9.24697 10.4 8.63652 10.4 8C10.4 7.36348 10.1472 6.75303 9.69706 6.30294C9.24698 5.85286 8.63653 5.6 8.00001 5.6C7.36349 5.6 6.75304 5.85286 6.30295 6.30294C5.85286 6.75303 5.60001 7.36348 5.60001 8ZM4.00001 7.6C4.00001 6.725 4.43751 5.8225 5.13001 5.13C5.82251 4.4375 6.72501 4 7.60001 4C7.82001 4 8.00001 3.82 8.00001 3.6C8.00001 3.38 7.82001 3.2 7.60001 3.2C6.46501 3.2 5.37001 3.7575 4.56251 4.5625C3.75501 5.3675 3.20001 6.465 3.20001 7.6C3.20001 7.82 3.38001 8 3.60001 8C3.82001 8 4.00001 7.82 4.00001 7.6Z" fill="#0D6EFD"/>
</svg>
