<svg width="237" height="40" viewBox="0 0 237 40" fill="none" xmlns="http://www.w3.org/2000/svg">
<path d="M73.147 16.8203H68.4808C68.3956 16.2166 68.2216 15.6804 67.9588 15.2116C67.696 14.7358 67.3587 14.331 66.9467 13.9972C66.5348 13.6634 66.0589 13.4077 65.5192 13.2301C64.9865 13.0526 64.4077 12.9638 63.7827 12.9638C62.6534 12.9638 61.6697 13.2443 60.8317 13.8054C59.9936 14.3594 59.3438 15.169 58.8821 16.2344C58.4205 17.2926 58.1896 18.5781 58.1896 20.0909C58.1896 21.6463 58.4205 22.9531 58.8821 24.0114C59.3509 25.0696 60.0043 25.8686 60.8423 26.4084C61.6804 26.9482 62.6499 27.218 63.7507 27.218C64.3686 27.218 64.9403 27.1364 65.4659 26.973C65.9986 26.8097 66.4709 26.5717 66.8828 26.2592C67.2947 25.9396 67.6357 25.5526 67.9055 25.098C68.1825 24.6435 68.3743 24.125 68.4808 23.5426L73.147 23.5639C73.0263 24.5653 72.7244 25.5312 72.2415 26.4616C71.7656 27.3849 71.1229 28.2124 70.3132 28.9439C69.5107 29.6683 68.5518 30.2436 67.4368 30.6697C66.3288 31.0888 65.0753 31.2983 63.6761 31.2983C61.7301 31.2983 59.9901 30.858 58.456 29.9773C56.929 29.0966 55.7216 27.8217 54.8338 26.1527C53.9531 24.4837 53.5128 22.4631 53.5128 20.0909C53.5128 17.7116 53.9602 15.6875 54.8551 14.0185C55.75 12.3494 56.9645 11.0781 58.4986 10.2045C60.0327 9.32386 61.7585 8.88352 63.6761 8.88352C64.9403 8.88352 66.1122 9.06108 67.1918 9.41619C68.2784 9.77131 69.2408 10.2898 70.0788 10.9716C70.9169 11.6463 71.5987 12.4737 72.1243 13.4538C72.657 14.4339 72.9979 15.5561 73.147 16.8203ZM83.7631 31.3196C82.1083 31.3196 80.6772 30.968 79.4698 30.2649C78.2695 29.5547 77.3427 28.5675 76.6893 27.3033C76.0359 26.032 75.7092 24.5582 75.7092 22.8821C75.7092 21.1918 76.0359 19.7145 76.6893 18.4503C77.3427 17.179 78.2695 16.1918 79.4698 15.4886C80.6772 14.7784 82.1083 14.4233 83.7631 14.4233C85.418 14.4233 86.8455 14.7784 88.0458 15.4886C89.2532 16.1918 90.1836 17.179 90.837 18.4503C91.4904 19.7145 91.8171 21.1918 91.8171 22.8821C91.8171 24.5582 91.4904 26.032 90.837 27.3033C90.1836 28.5675 89.2532 29.5547 88.0458 30.2649C86.8455 30.968 85.418 31.3196 83.7631 31.3196ZM83.7844 27.804C84.5373 27.804 85.1658 27.5909 85.6701 27.1648C86.1744 26.7315 86.5543 26.142 86.81 25.3963C87.0728 24.6506 87.2042 23.8018 87.2042 22.8501C87.2042 21.8984 87.0728 21.0497 86.81 20.304C86.5543 19.5582 86.1744 18.9687 85.6701 18.5355C85.1658 18.1023 84.5373 17.8857 83.7844 17.8857C83.0245 17.8857 82.3853 18.1023 81.8668 18.5355C81.3555 18.9687 80.9684 19.5582 80.7056 20.304C80.4499 21.0497 80.3221 21.8984 80.3221 22.8501C80.3221 23.8018 80.4499 24.6506 80.7056 25.3963C80.9684 26.142 81.3555 26.7315 81.8668 27.1648C82.3853 27.5909 83.0245 27.804 83.7844 27.804ZM94.7681 31V14.6364H99.0934V17.5234H99.2852C99.6261 16.5646 100.194 15.8082 100.99 15.2543C101.785 14.7003 102.737 14.4233 103.845 14.4233C104.967 14.4233 105.922 14.7038 106.711 15.2649C107.499 15.8189 108.025 16.5717 108.287 17.5234H108.458C108.792 16.5859 109.395 15.8366 110.269 15.2756C111.15 14.7074 112.19 14.4233 113.39 14.4233C114.917 14.4233 116.157 14.9098 117.108 15.8828C118.067 16.8487 118.547 18.2195 118.547 19.995V31H114.019V20.8899C114.019 19.9808 113.777 19.299 113.294 18.8445C112.811 18.3899 112.208 18.1626 111.483 18.1626C110.659 18.1626 110.017 18.4254 109.555 18.951C109.093 19.4695 108.863 20.1548 108.863 21.0071V31H104.463V20.794C104.463 19.9915 104.232 19.3523 103.77 18.8764C103.316 18.4006 102.716 18.1626 101.97 18.1626C101.466 18.1626 101.011 18.2905 100.606 18.5462C100.208 18.7947 99.8924 19.1463 99.658 19.6009C99.4237 20.0483 99.3065 20.5739 99.3065 21.1776V31H94.7681ZM122.131 37.1364V14.6364H126.606V17.3849H126.808C127.007 16.9446 127.295 16.4972 127.671 16.0426C128.055 15.581 128.552 15.1974 129.163 14.892C129.781 14.5795 130.548 14.4233 131.464 14.4233C132.657 14.4233 133.758 14.7358 134.766 15.3608C135.775 15.9787 136.581 16.9126 137.185 18.1626C137.788 19.4055 138.09 20.9645 138.09 22.8395C138.09 24.6648 137.795 26.206 137.206 27.4631C136.624 28.7131 135.828 29.6612 134.82 30.3075C133.818 30.9467 132.696 31.2663 131.453 31.2663C130.572 31.2663 129.823 31.1207 129.205 30.8295C128.594 30.5384 128.094 30.1726 127.703 29.7322C127.312 29.2848 127.014 28.8338 126.808 28.3793H126.67V37.1364H122.131ZM126.574 22.8182C126.574 23.7912 126.709 24.6399 126.979 25.3643C127.249 26.0888 127.639 26.6534 128.151 27.0582C128.662 27.456 129.283 27.6548 130.015 27.6548C130.754 27.6548 131.379 27.4524 131.89 27.0476C132.401 26.6357 132.788 26.0675 133.051 25.343C133.321 24.6115 133.456 23.7699 133.456 22.8182C133.456 21.8736 133.325 21.0426 133.062 20.3253C132.799 19.608 132.412 19.0469 131.901 18.642C131.389 18.2372 130.761 18.0348 130.015 18.0348C129.276 18.0348 128.651 18.2301 128.14 18.6207C127.636 19.0114 127.249 19.5653 126.979 20.2827C126.709 21 126.574 21.8452 126.574 22.8182ZM145.782 31.3089C144.738 31.3089 143.808 31.1278 142.991 30.7656C142.174 30.3963 141.528 29.853 141.052 29.1357C140.583 28.4112 140.349 27.5092 140.349 26.4297C140.349 25.5206 140.516 24.7571 140.849 24.1392C141.183 23.5213 141.638 23.0241 142.213 22.6477C142.788 22.2713 143.442 21.9872 144.173 21.7955C144.912 21.6037 145.686 21.4688 146.496 21.3906C147.447 21.2912 148.214 21.1989 148.797 21.1136C149.379 21.0213 149.802 20.8864 150.065 20.7088C150.327 20.5312 150.459 20.2685 150.459 19.9205V19.8565C150.459 19.1818 150.246 18.6598 149.82 18.2905C149.401 17.9212 148.804 17.7365 148.03 17.7365C147.213 17.7365 146.563 17.9176 146.08 18.2798C145.597 18.6349 145.278 19.0824 145.121 19.6222L140.924 19.2812C141.137 18.2869 141.556 17.4276 142.181 16.7031C142.806 15.9716 143.612 15.4105 144.599 15.0199C145.594 14.6222 146.744 14.4233 148.051 14.4233C148.96 14.4233 149.83 14.5298 150.661 14.7429C151.499 14.956 152.241 15.2862 152.888 15.7337C153.541 16.1811 154.056 16.7564 154.433 17.4595C154.809 18.1555 154.997 18.9901 154.997 19.9631V31H150.693V28.7308H150.565C150.303 29.2422 149.951 29.6932 149.511 30.0838C149.07 30.4673 148.541 30.7692 147.923 30.9893C147.305 31.2024 146.592 31.3089 145.782 31.3089ZM147.082 28.1768C147.749 28.1768 148.339 28.0455 148.85 27.7827C149.362 27.5128 149.763 27.1506 150.054 26.696C150.345 26.2415 150.491 25.7266 150.491 25.1513V23.4148C150.349 23.5071 150.153 23.5923 149.905 23.6705C149.663 23.7415 149.39 23.8089 149.085 23.8729C148.779 23.9297 148.474 23.983 148.168 24.0327C147.863 24.0753 147.586 24.1143 147.337 24.1499C146.805 24.228 146.339 24.3523 145.942 24.5227C145.544 24.6932 145.235 24.924 145.015 25.2152C144.795 25.4993 144.685 25.8544 144.685 26.2805C144.685 26.8984 144.908 27.3707 145.356 27.6974C145.81 28.017 146.386 28.1768 147.082 28.1768ZM165.912 31.3196C164.235 31.3196 162.794 30.9645 161.586 30.2543C160.386 29.5369 159.463 28.5426 158.816 27.2713C158.177 26 157.858 24.5369 157.858 22.8821C157.858 21.206 158.181 19.7358 158.827 18.4716C159.48 17.2003 160.407 16.2095 161.608 15.4993C162.808 14.782 164.235 14.4233 165.89 14.4233C167.318 14.4233 168.568 14.6825 169.64 15.201C170.713 15.7195 171.561 16.4474 172.186 17.3849C172.811 18.3224 173.156 19.4233 173.22 20.6875H168.937C168.816 19.8707 168.497 19.2138 167.978 18.7166C167.467 18.2124 166.796 17.9602 165.965 17.9602C165.262 17.9602 164.647 18.152 164.122 18.5355C163.603 18.9119 163.199 19.4624 162.907 20.1868C162.616 20.9112 162.471 21.7884 162.471 22.8182C162.471 23.8622 162.613 24.75 162.897 25.4815C163.188 26.2131 163.596 26.7706 164.122 27.1541C164.647 27.5376 165.262 27.7294 165.965 27.7294C166.483 27.7294 166.949 27.6229 167.36 27.4098C167.779 27.1967 168.124 26.8878 168.394 26.483C168.671 26.071 168.852 25.5774 168.937 25.0021H173.22C173.149 26.2521 172.808 27.353 172.197 28.3047C171.593 29.2493 170.759 29.9879 169.694 30.5206C168.628 31.0533 167.368 31.3196 165.912 31.3196ZM184.829 14.6364V18.0455H174.975V14.6364H184.829ZM177.212 10.7159H181.751V25.9716C181.751 26.3906 181.814 26.7173 181.942 26.9517C182.07 27.179 182.248 27.3388 182.475 27.4311C182.709 27.5234 182.979 27.5696 183.285 27.5696C183.498 27.5696 183.711 27.5518 183.924 27.5163C184.137 27.4737 184.3 27.4418 184.414 27.4205L185.128 30.7976C184.9 30.8686 184.581 30.9503 184.169 31.0426C183.757 31.142 183.256 31.2024 182.667 31.2237C181.573 31.2663 180.614 31.1207 179.79 30.7869C178.974 30.4531 178.338 29.9347 177.883 29.2315C177.429 28.5284 177.205 27.6406 177.212 26.5682V10.7159ZM191.632 31H186.688L194.22 9.18182H200.165L207.686 31H202.743L197.278 14.1676H197.107L191.632 31ZM191.323 22.424H202.999V26.0249H191.323V22.424ZM210.312 31V9.18182H218.92C220.575 9.18182 221.985 9.49787 223.15 10.13C224.314 10.755 225.202 11.625 225.813 12.7401C226.431 13.848 226.74 15.1264 226.74 16.5753C226.74 18.0241 226.427 19.3026 225.802 20.4105C225.177 21.5185 224.272 22.3814 223.086 22.9993C221.907 23.6172 220.479 23.9261 218.803 23.9261H213.317V20.2294H218.057C218.945 20.2294 219.677 20.0767 220.252 19.7713C220.834 19.4588 221.268 19.0291 221.552 18.4822C221.843 17.9283 221.988 17.2926 221.988 16.5753C221.988 15.8509 221.843 15.2187 221.552 14.679C221.268 14.1321 220.834 13.7095 220.252 13.4112C219.67 13.1058 218.931 12.9531 218.036 12.9531H214.925V31H210.312ZM234.349 9.18182V31H229.736V9.18182H234.349Z" fill="#212529"/>
<path d="M0 20C0 14.6957 2.10714 9.60859 5.85786 5.85786C9.60859 2.10714 14.6957 0 20 0C25.3043 0 30.3914 2.10714 34.1421 5.85786C37.8929 9.60859 40 14.6957 40 20C40 25.3043 37.8929 30.3914 34.1421 34.1421C30.3914 37.8929 25.3043 40 20 40C14.6957 40 9.60859 37.8929 5.85786 34.1421C2.10714 30.3914 0 25.3043 0 20ZM20 22.5C19.337 22.5 18.7011 22.2366 18.2322 21.7678C17.7634 21.2989 17.5 20.663 17.5 20C17.5 19.337 17.7634 18.7011 18.2322 18.2322C18.7011 17.7634 19.337 17.5 20 17.5C20.663 17.5 21.2989 17.7634 21.7678 18.2322C22.2366 18.7011 22.5 19.337 22.5 20C22.5 20.663 22.2366 21.2989 21.7678 21.7678C21.2989 22.2366 20.663 22.5 20 22.5ZM12.5 20C12.5 21.9891 13.2902 23.8968 14.6967 25.3033C16.1032 26.7098 18.0109 27.5 20 27.5C21.9891 27.5 23.8968 26.7098 25.3033 25.3033C26.7098 23.8968 27.5 21.9891 27.5 20C27.5 18.0109 26.7098 16.1032 25.3033 14.6967C23.8968 13.2902 21.9891 12.5 20 12.5C18.0109 12.5 16.1032 13.2902 14.6967 14.6967C13.2902 16.1032 12.5 18.0109 12.5 20ZM7.5 18.75C7.5 16.0156 8.86719 13.1953 11.0312 11.0312C13.1953 8.86719 16.0156 7.5 18.75 7.5C19.4375 7.5 20 6.9375 20 6.25C20 5.5625 19.4375 5 18.75 5C15.2031 5 11.7812 6.74219 9.25781 9.25781C6.73438 11.7734 5 15.2031 5 18.75C5 19.4375 5.5625 20 6.25 20C6.9375 20 7.5 19.4375 7.5 18.75Z" fill="#0D6EFD"/>
</svg>
